<?xml version="1.0" encoding="UTF-8"?>
<!DOCTYPE svg PUBLIC "-//W3C//DTD SVG 1.1//EN" "http://www.w3.org/Graphics/SVG/1.1/DTD/svg11.dtd">
<svg width="357pt" height="450pt" viewBox="0 0 357 450" version="1.1" xmlns="http://www.w3.org/2000/svg">
<g id="#ffffffff">
</g>
<g id="#231f20ff">
<path fill="#231f20" opacity="1.00" d=" M 205.18 28.17 C 217.58 12.19 237.34 3.45 257.03 0.91 C 264.98 0.89 272.94 1.25 280.89 0.75 C 299.48 2.55 317.97 10.39 330.57 24.47 C 341.28 36.18 347.16 51.67 348.81 67.32 C 334.67 67.52 320.52 67.95 306.38 67.86 C 304.59 57.54 297.87 48.27 288.64 43.33 C 278.84 38.05 266.78 36.38 256.16 40.09 C 250.42 42.06 244.88 45.22 241.14 50.10 C 236.15 56.43 236.84 66.09 241.80 72.23 C 246.91 78.44 254.75 81.41 262.19 83.81 C 279.95 89.12 298.54 91.38 315.97 97.86 C 328.04 102.29 339.84 109.11 347.21 119.95 C 355.64 132.39 357.42 148.26 355.39 162.86 C 353.29 178.18 345.09 192.47 333.07 202.16 C 316.93 215.38 295.65 221.08 275.03 220.87 C 255.10 220.59 234.72 215.40 218.52 203.43 C 207.60 195.41 199.11 183.98 195.27 170.94 C 193.21 164.58 192.65 157.88 192.32 151.24 C 206.22 151.06 220.12 151.44 234.03 151.23 C 238.02 162.82 246.65 172.89 258.11 177.56 C 269.66 182.38 283.19 183.01 294.84 178.13 C 300.43 175.79 305.79 172.25 309.03 167.01 C 312.63 161.24 313.07 153.40 309.34 147.58 C 305.76 141.93 299.53 138.76 293.51 136.35 C 282.07 131.98 269.98 129.75 258.15 126.75 C 242.77 122.91 227.03 118.52 213.99 109.16 C 204.74 102.63 197.75 92.91 194.93 81.91 C 190.22 63.71 193.39 43.10 205.18 28.17 Z"/>
<path fill="#231f20" opacity="1.00" d=" M 0.00 4.29 C 20.28 4.15 40.56 4.27 60.84 4.22 C 71.70 44.88 82.00 85.69 92.96 126.31 C 101.24 85.67 108.72 44.85 116.91 4.19 C 139.86 4.29 162.82 4.18 185.77 4.24 C 185.80 75.87 185.73 147.50 185.81 219.13 C 171.97 219.18 158.14 219.25 144.31 219.09 C 143.46 179.32 142.81 139.54 141.59 99.79 C 133.54 139.60 125.09 179.34 116.97 219.14 C 102.27 219.19 87.57 219.20 72.87 219.14 C 62.96 181.30 53.26 143.41 43.19 105.61 C 42.85 109.07 42.87 112.55 42.90 116.02 C 42.94 150.40 42.87 184.77 42.93 219.15 C 32.30 219.20 21.67 219.16 11.04 219.18 C 7.36 219.17 3.65 219.39 0.00 218.76 L 0.00 4.29 Z"/>
<path fill="#231f20" opacity="1.00" d=" M 119.09 245.14 C 137.41 231.00 161.11 225.30 183.98 226.19 C 194.55 226.72 205.02 228.67 215.20 231.53 C 215.57 231.75 216.30 232.18 216.67 232.39 C 204.23 241.15 193.54 252.73 186.84 266.46 C 174.21 265.03 161.13 268.21 150.81 275.71 C 137.90 284.77 128.53 299.23 126.80 315.04 C 124.80 331.01 122.94 347.00 120.96 362.97 C 120.38 367.39 120.19 372.00 118.19 376.07 C 115.40 381.95 111.19 387.04 106.76 391.76 C 102.74 395.96 96.63 396.64 91.13 396.70 C 78.33 368.46 75.72 336.02 82.42 305.85 C 87.57 282.40 99.70 259.81 119.09 245.14 Z"/>
<path fill="#231f20" opacity="1.00" d=" M 215.42 241.33 C 234.30 229.08 257.83 226.43 279.80 228.70 C 299.24 230.65 319.12 237.71 332.56 252.45 C 343.63 264.25 348.82 280.36 349.96 296.26 C 335.97 296.52 321.97 296.40 307.98 296.32 C 306.46 287.92 302.18 279.90 295.34 274.66 C 285.43 266.98 272.17 264.85 259.96 266.41 C 250.78 267.75 241.15 270.68 234.66 277.68 C 230.78 282.01 228.29 288.58 230.81 294.18 C 233.26 301.07 235.64 307.99 238.03 314.90 C 241.71 325.93 240.00 337.77 238.83 349.08 C 223.45 344.95 207.55 338.24 197.79 325.05 C 188.39 312.24 187.19 295.26 189.78 280.04 C 192.43 264.28 201.94 249.91 215.42 241.33 Z"/>
<path fill="#231f20" opacity="1.00" d=" M 0.00 234.28 C 25.66 233.59 51.33 232.94 77.00 232.33 C 89.71 232.29 102.40 234.19 114.50 238.13 C 114.56 239.89 114.22 241.60 112.65 242.63 C 102.12 251.85 94.23 263.56 87.09 275.47 C 72.30 275.40 57.51 275.74 42.71 275.75 C 43.01 317.81 42.78 359.89 43.07 401.96 C 52.04 402.68 61.03 403.33 70.01 403.83 C 78.70 403.80 87.39 403.68 96.08 403.53 C 104.45 403.25 111.16 397.21 116.12 391.01 C 122.75 382.37 127.86 372.14 128.72 361.15 C 129.84 347.73 131.10 334.32 132.31 320.91 C 132.81 315.21 133.94 309.52 136.17 304.23 C 141.04 292.27 151.01 282.79 162.72 277.58 C 179.38 305.75 181.83 340.59 174.14 371.95 C 168.56 394.31 155.40 415.17 135.95 427.92 C 116.96 440.65 93.53 445.22 70.95 444.24 C 47.30 443.25 23.63 442.60 0.00 441.35 L 0.00 234.28 Z"/>
<path fill="#231f20" opacity="1.00" d=" M 247.07 277.21 C 256.31 272.86 266.80 272.94 276.74 274.10 C 286.98 292.71 293.02 313.70 293.15 334.99 C 293.65 358.70 287.21 382.23 276.16 403.11 C 265.02 404.43 253.36 402.23 243.84 396.20 C 239.82 393.68 236.36 389.12 237.65 384.13 C 240.26 373.71 243.81 363.53 246.66 353.17 C 248.16 347.22 247.53 341.05 247.45 334.99 C 247.26 327.85 245.86 320.79 243.82 313.96 C 241.33 305.38 237.63 296.96 237.26 287.92 C 237.48 282.52 242.62 279.19 247.07 277.21 Z"/>
<path fill="#231f20" opacity="1.00" d=" M 298.94 323.60 C 314.26 327.77 330.15 332.86 342.04 343.87 C 351.88 352.85 356.52 366.22 357.00 379.29 L 357.00 386.77 C 356.32 399.12 351.91 411.37 343.75 420.76 C 332.90 433.44 317.14 440.88 301.11 444.61 C 279.77 449.45 257.22 448.37 236.17 442.57 C 219.19 437.77 202.39 428.27 193.52 412.46 C 187.47 401.57 182.18 388.84 185.44 376.22 C 199.12 376.06 212.81 376.32 226.50 376.42 C 228.02 385.80 231.90 395.38 239.71 401.25 C 249.43 408.61 262.18 409.73 273.97 409.85 C 284.69 409.62 296.15 408.51 305.23 402.26 C 313.12 397.04 316.22 385.70 311.77 377.29 C 308.56 371.41 302.60 367.83 296.91 364.71 C 297.28 350.99 298.30 337.30 298.94 323.60 Z"/>
<path fill="#231f20" opacity="1.00" d=" M 167.46 406.50 C 172.84 405.66 178.46 406.48 183.93 406.59 C 191.03 422.79 204.66 434.97 219.29 444.36 C 208.54 448.01 197.22 449.76 185.88 450.00 L 185.25 450.00 C 168.85 449.83 152.62 446.22 137.36 440.34 C 137.34 440.14 137.30 439.75 137.28 439.55 C 142.89 434.06 148.70 428.76 154.40 423.35 C 159.89 418.69 163.00 412.03 167.46 406.50 Z"/>
</g>
</svg>