<?xml version="1.0" encoding="UTF-8" standalone="no"?>
<!-- Created with Inkscape (http://www.inkscape.org/) -->
<svg xmlns:dc="http://purl.org/dc/elements/1.1/" xmlns:cc="http://creativecommons.org/ns#" xmlns:rdf="http://www.w3.org/1999/02/22-rdf-syntax-ns#" xmlns:svg="http://www.w3.org/2000/svg" xmlns="http://www.w3.org/2000/svg" xmlns:sodipodi="http://sodipodi.sourceforge.net/DTD/sodipodi-0.dtd" xmlns:inkscape="http://www.inkscape.org/namespaces/inkscape" id="svg2" version="1.1" inkscape:version="0.48.3.1 r9886" width="169.16988" height="116.4775" xml:space="preserve" sodipodi:docname="Windows_logo_and_watermark_-_1985.svg"><metadata id="metadata8"><rdf:RDF><cc:Work rdf:about=""><dc:format>image/svg+xml</dc:format><dc:type rdf:resource="http://purl.org/dc/dcmitype/StillImage"/><dc:title/></cc:Work></rdf:RDF></metadata><defs id="defs6"><inkscape:perspective sodipodi:type="inkscape:persp3d" inkscape:vp_x="0 : 0.5 : 1" inkscape:vp_y="0 : 1000 : 0" inkscape:vp_z="1 : 0.5 : 1" inkscape:persp3d-origin="0.5 : 0.33333333 : 1" id="perspective10"/><clipPath clipPathUnits="userSpaceOnUse" id="clipPath20"><path d="m 0,0 6120,0 0,1810 L 0,1810 0,0 z" id="path22" inkscape:connector-curvature="0"/></clipPath></defs><sodipodi:namedview pagecolor="#ffffff" bordercolor="#666666" borderopacity="1" objecttolerance="10" gridtolerance="10" guidetolerance="10" inkscape:pageopacity="0" inkscape:pageshadow="2" inkscape:window-width="1280" inkscape:window-height="961" id="namedview4" showgrid="false" inkscape:zoom="0.95353535" inkscape:cx="401.52501" inkscape:cy="-4.3559586" inkscape:window-x="0" inkscape:window-y="0" inkscape:window-maximized="1" inkscape:current-layer="g12" fit-margin-top="0" fit-margin-left="0" fit-margin-right="0" fit-margin-bottom="0"/><g id="g12" inkscape:groupmode="layer" inkscape:label="Microsoft_Windows_1_0" transform="matrix(1.25,0,0,-1.25,-16.111312,552.9375)"><path inkscape:connector-curvature="0" id="path24" style="fill:#96c4eb;fill-opacity:1;fill-rule:nonzero;stroke:none" d="m 12.88905,430.35 0,-22.759 53.7265,0 0,34.759 -41.7265,0 c -6.627,0 -12,-5.373 -12,-12 z m 58.9029,-81.182 64.433,0 c 6.627,0 12,5.373 12,12 l 0,24.2379 -76.433,0 0,-36.2379 z m -58.9029,12 c 0,-6.627 5.373,-12 12,-12 l 41.7265,0 0,53.2465 -53.7265,0 0,-41.2465 z m 123.3359,81.182 -64.433,0 0,-52.1371 76.433,0 0,40.1371 c 0,6.627 -5.373,12 -12,12"/></g></svg>